<?xml version="1.0" encoding="UTF-8"?>
<svg width="32" height="32" viewBox="0 0 32 32" fill="none" xmlns="http://www.w3.org/2000/svg">
  <!-- Background circle -->
  <circle cx="16" cy="16" r="16" fill="#3B82F6"/>
  
  <!-- Graduation cap -->
  <g transform="translate(6, 8)">
    <!-- Cap base -->
    <path d="M10 6L20 4L10 2L0 4L10 6Z" fill="#FFFFFF"/>
    <!-- Cap top -->
    <path d="M8 6V10C8 11.1 8.9 12 10 12C11.1 12 12 11.1 12 10V6" fill="#FFFFFF"/>
    <!-- Tassel -->
    <circle cx="18" cy="4" r="1" fill="#FEF3C7"/>
    <path d="M18 5L18 8" stroke="#FEF3C7" stroke-width="0.5"/>
  </g>
  
  <!-- Wave elements -->
  <path d="M4 22C6 20 8 20 10 22C12 24 14 24 16 22C18 20 20 20 22 22C24 24 26 24 28 22" 
        stroke="#FFFFFF" stroke-width="1.5" fill="none" opacity="0.8"/>
</svg>