
<svg width="644" height="202" viewBox="0 0 644 202" fill="none" xmlns="http://www.w3.org/2000/svg">
<text x="180" y="130" font-family="Arial, sans-serif" font-size="90" font-weight="bold" fill="black">NextWave</text>
<path fill-rule="evenodd" clip-rule="evenodd" d="M125.173 99.8505C119.6 81.998 103.297 69.0748 84.0525 69.0748C64.8084 69.0748 48.5052 81.998 42.9316 99.8505H1.78906C8.10971 59.0623 42.534 27.8867 84.0525 27.8867C125.571 27.8867 159.995 59.0623 166.316 99.8505H125.173Z" fill="black"/>
<path fill-rule="evenodd" clip-rule="evenodd" d="M84.0529 157.704C96.2505 157.704 107.267 152.512 115.118 144.163H87.512V116.332H167.354V198.89H140.238V176.517C125.425 190.414 105.704 198.892 84.0529 198.892C39.0053 198.892 2.30939 162.191 0.799805 116.332H40.9742C42.4483 139.434 61.1719 157.704 84.0529 157.704Z" fill="#EF3009"/>
</svg>
